<?xml version="1.0" encoding="utf-8"?>
<!-- Generator: Adobe Illustrator 26.1.0, SVG Export Plug-In . SVG Version: 6.00 Build 0)  -->
<svg version="1.1" id="Layer_1" xmlns="http://www.w3.org/2000/svg" xmlns:xlink="http://www.w3.org/1999/xlink" x="0px" y="0px"
	 viewBox="200 100 700 400" style="enable-background:new 0 0 900 500;" xml:space="preserve">
<style type="text/css">
	.st0{fill:#FF0000;stroke:#000000;stroke-miterlimit:10;}
	.st1{opacity:0.57;fill:#42210B;}
	.st2{fill:#FFFFFF;}
</style>
<path class="st0" d="M561.5,176.5"/>
<path class="st1" d="M234.5,363.5c-5.56-10.02-9.1-20.33-10-23c-25.35-75.52,5.49-183.45,63-204c64.72-23.12,141.56,72.15,195,37
	c12.7-8.35,20.81-21.92,42-26c27.27-5.25,50.15,10.22,61,16c76.6,40.77,175.23-71.25,231-37c48.61,29.85,42.09,156.95-4,243
	c-2.86,5.33-5.77,10.77-10,17C704.29,531.08,307.69,495.44,234.5,363.5z"/>
<path class="st2" d="M494.07,221.86l-2.91-2.81c-4.34-4.19-5.99-12.25-3.9-19.15l0.19-0.64c1.69-5.62,5.52-9.29,9.78-9.38l8.67-0.18
	c2.25-0.05,4.46,0.92,6.31,2.76l0.13,0.13c4.95,4.92,6.16,14.7,2.7,21.78l0,0c-0.2,0.41-0.42,0.82-0.65,1.2l-2.09,3.5
	c-2.06,3.45-5.06,5.43-8.21,5.43h-3.98C497.95,224.5,495.85,223.58,494.07,221.86z"/>
<path class="st2" d="M579.08,221.79l-2.91-2.89c-4.34-4.31-5.98-12.6-3.9-19.7l0.19-0.66c1.69-5.78,5.52-9.56,9.77-9.65l8.66-0.18
	c2.25-0.05,4.46,0.95,6.31,2.84l0.13,0.13c4.94,5.06,6.16,15.12,2.7,22.4v0c-0.2,0.43-0.42,0.84-0.65,1.23l-2.09,3.61
	c-2.06,3.55-5.05,5.59-8.21,5.59h-3.98C582.96,224.5,580.86,223.56,579.08,221.79z"/>
<path class="st2" d="M508.04,261.1c2.71-8.56,6.55-20.71,22.43-24.81c14.17-3.65,28.81,1.47,32.05,2.68
	c3.08,1.16,12.52,5.06,17.09,12.74c7.11,11.94-3.72,22.59-5.34,24.13c-7.46,7.08-22.34,14.1-39.52,12.74
	c-2.08-0.16-18.31-1.61-25.64-10.06C504.28,272.97,506.02,267.48,508.04,261.1z"/>
</svg>
