<?xml version="1.0" encoding="utf-8"?>
<!-- Generator: Adobe Illustrator 26.1.0, SVG Export Plug-In . SVG Version: 6.00 Build 0)  -->
<svg version="1.1" id="Layer_1" xmlns="http://www.w3.org/2000/svg" xmlns:xlink="http://www.w3.org/1999/xlink" x="0px" y="0px"
	 viewBox="5 5 120 120" style="enable-background:new 0 0 132 129;" xml:space="preserve">
<style type="text/css">
	.st0{fill:#fff;}
</style>
<g>
	<path class="st0" d="M65.95,5.36C32.61,5.36,5.57,32.4,5.57,65.75c0,26.68,17.3,49.32,41.3,57.3c3.02,0.56,4.13-1.31,4.13-2.91
		c0-1.44-0.06-6.2-0.08-11.24c-16.8,3.65-20.34-7.12-20.34-7.12c-2.75-6.98-6.7-8.84-6.7-8.84c-5.48-3.75,0.41-3.67,0.41-3.67
		c6.06,0.43,9.26,6.22,9.26,6.22c5.39,9.23,14.13,6.56,17.57,5.02c0.54-3.9,2.11-6.57,3.83-8.08c-13.41-1.53-27.51-6.71-27.51-29.84
		c0-6.59,2.36-11.98,6.22-16.21c-0.63-1.52-2.69-7.66,0.58-15.98c0,0,5.07-1.62,16.61,6.19c4.82-1.34,9.98-2.01,15.12-2.03
		c5.13,0.02,10.3,0.69,15.13,2.03c11.53-7.81,16.59-6.19,16.59-6.19c3.29,8.32,1.22,14.46,0.59,15.98
		c3.87,4.23,6.21,9.62,6.21,16.21c0,23.19-14.13,28.3-27.57,29.8c2.17,1.87,4.1,5.55,4.1,11.18c0,8.08-0.07,14.58-0.07,16.57
		c0,1.61,1.09,3.49,4.15,2.9c23.98-7.99,41.26-30.62,41.26-57.29C126.34,32.4,99.3,5.36,65.95,5.36z"/>
	<path d="M28.44,92.07c-0.13,0.3-0.61,0.39-1.04,0.18c-0.44-0.2-0.68-0.61-0.54-0.91c0.13-0.31,0.6-0.39,1.04-0.19
		C28.34,91.35,28.59,91.77,28.44,92.07L28.44,92.07z M27.69,91.52"/>
	<path d="M30.88,94.79c-0.29,0.27-0.85,0.14-1.23-0.28c-0.4-0.42-0.47-0.98-0.18-1.25c0.3-0.27,0.84-0.14,1.24,0.28
		C31.11,93.97,31.18,94.52,30.88,94.79L30.88,94.79z M30.31,94.18"/>
	<path d="M33.26,98.27c-0.37,0.26-0.98,0.02-1.35-0.52c-0.37-0.54-0.37-1.18,0.01-1.44c0.37-0.26,0.97-0.03,1.35,0.51
		C33.64,97.36,33.64,98.01,33.26,98.27L33.26,98.27z M33.26,98.27"/>
	<path d="M36.53,101.63c-0.33,0.37-1.04,0.27-1.55-0.23c-0.53-0.49-0.67-1.18-0.34-1.54c0.34-0.37,1.04-0.26,1.56,0.23
		C36.72,100.58,36.88,101.27,36.53,101.63L36.53,101.63z M36.53,101.63"/>
	<path d="M41.03,103.58c-0.15,0.47-0.83,0.69-1.51,0.49c-0.68-0.21-1.13-0.76-0.99-1.24c0.14-0.48,0.82-0.7,1.51-0.49
		C40.72,102.55,41.17,103.1,41.03,103.58L41.03,103.58z M41.03,103.58"/>
	<path d="M45.97,103.94c0.02,0.5-0.56,0.91-1.28,0.92c-0.72,0.02-1.31-0.39-1.31-0.88c0-0.5,0.57-0.91,1.29-0.92
		C45.38,103.05,45.97,103.45,45.97,103.94L45.97,103.94z M45.97,103.94"/>
	<path d="M50.57,103.16c0.09,0.49-0.41,0.98-1.13,1.12c-0.7,0.13-1.35-0.17-1.44-0.65c-0.09-0.5,0.42-1,1.12-1.13
		C49.84,102.38,50.48,102.67,50.57,103.16L50.57,103.16z M50.57,103.16"/>
</g>
</svg>
